<?xml version="1.0" encoding="utf-8"?>
<!-- Generator: Adobe Illustrator 26.0.1, SVG Export Plug-In . SVG Version: 6.00 Build 0)  -->
<svg version="1.1" id="Layer_1" xmlns="http://www.w3.org/2000/svg" xmlns:xlink="http://www.w3.org/1999/xlink" x="0px" y="0px"
	 viewBox="0 0 498.25 416.5" style="enable-background:new 0 0 498.25 416.5;" xml:space="preserve">
<style type="text/css">
	.st0{fill:#D8324A;}
	.st1{fill:#00AAA5;}
</style>
<g>
	<g>
		<path class="st0" d="M342.91,132.49l-8.58,2.35l-8.39,2.3l-1.49,0.41l-1.87-1.41l-10.63-8.05c0-0.01,0-0.01-0.01-0.01l-11.15-8.45
			c-5.74-1.94-11.56-3.96-17.49-6.02c-2.27-0.79-4.54-1.58-6.83-2.37l11.57,8.77l11.48,8.7l23.24,17.6l18.37-5.04l9.1-2.49l9.5-2.61
			C354.19,135.17,348.59,133.92,342.91,132.49z"/>
	</g>
</g>
<g>
	<g>
		<path class="st1" d="M295.27,34.88l-4.75-0.79c9.52-17.62,28.16-29.59,49.59-29.59c18.36,0,34.67,8.78,44.95,22.38
			c1.19,1.57,2.3,3.21,3.32,4.91c0.94,1.56,1.81,3.17,2.59,4.82c1.79,3.73,3.17,7.69,4.1,11.82c0.23,1.04,0.44,2.09,0.61,3.15
			l-4.72-0.78l-38.72-6.44l-4.44-0.74L295.27,34.88z"/>
		<path class="st1" d="M396.44,60.84c0,31.11-25.22,56.33-56.33,56.33c-31.11,0-56.33-25.22-56.33-56.33
			c0-6.74,1.18-13.21,3.36-19.2l4.54,0.75L391.9,59.06l4.53,0.75C396.44,60.15,396.44,60.49,396.44,60.84z"/>
		<path class="st1" d="M396.43,59.81l-4.53-0.75c0.03,0.59,0.04,1.18,0.04,1.78c0,28.58-23.25,51.83-51.83,51.83
			c-28.58,0-51.83-23.25-51.83-51.83c0-6.5,1.2-12.72,3.4-18.45l-4.54-0.75l-4.5-0.75c-2.18,6.25-3.36,12.97-3.36,19.95
			c0,33.54,27.29,60.83,60.83,60.83c33.54,0,60.83-27.29,60.83-60.83v-0.28L396.43,59.81z M295.27,34.88
			C304.24,19.42,320.98,9,340.11,9c15.25,0,28.98,6.62,38.48,17.14c1.42,1.58,2.74,3.24,3.96,4.98c1.1,1.56,2.11,3.19,3.04,4.87
			c2.01,3.67,3.59,7.6,4.67,11.73c0.26,1.01,0.5,2.04,0.7,3.08l4.72,0.78l4.67,0.78c-0.15-1.09-0.33-2.16-0.55-3.23
			c-0.8-4.14-2.03-8.13-3.64-11.93c-0.69-1.63-1.45-3.23-2.28-4.79c-0.88-1.67-1.84-3.29-2.88-4.86C380.12,10.97,361.37,0,340.11,0
			c-23.64,0-44.18,13.56-54.25,33.31l4.66,0.78L295.27,34.88z"/>
	</g>
	<g>
		<polygon class="st1" points="431.83,36.73 428.82,57.09 400.35,52.36 395.68,51.58 390.96,50.8 352.24,44.36 354.66,27.95 
			382.55,31.12 388.38,31.79 393.88,32.41 		"/>
		<path class="st1" d="M391,27.55l-5.94-0.67l-6.47-0.74l-27.74-3.15l-3.05,20.63l4.44,0.74l38.72,6.44l4.72,0.78l4.67,0.78
			l28.47,4.73l4.44,0.74l3.7-25.05L391,27.55z M424.9,52.83l-25.1-3.7l-4.73-0.7l-4.81-0.71l-33.24-4.9l1.46-9.91l27.11,3.08
			l5.38,0.62l5.19,0.59l30.53,3.47L424.9,52.83z"/>
	</g>
	<g>
		<path class="st1" d="M480.98,104.65c-82.04,77.97-161.68,19.12-267.44-8.39c-80.2-21.93-111.55,42.28-139.48,110.49l60.62,24.54
			l36.47-79.7l103.68,45.74l-35.11,88.7c82.61-34.41,55.71,79.34,44.1,109.67l103.28,15.65l6.26-46.95l-53.49-7.64
			c0,0,57.93-92.64,13.92-109.05c-11.14-4.15-40.57-4.14-51.19,0.89c20.74-72.35,155.4-20.65,190.91-81.37L480.98,104.65z"/>
		<path class="st1" d="M483.79,95.77l-5.91,5.62c-38.91,36.98-76.74,42.37-118.15,34.78c-5.54-1-11.14-2.25-16.82-3.68
			c-13.56-3.42-27.55-7.91-42.12-12.86c-5.74-1.94-11.56-3.96-17.49-6.02c-2.27-0.79-4.54-1.58-6.83-2.37
			c-19.74-6.82-40.13-13.69-61.75-19.32c-38.02-10.39-68.68-2.99-93.74,22.64c-22.29,22.79-37.46,57.2-51.09,90.49l-1.71,4.18
			l68.79,27.85l36.42-79.57l95.65,42.2l-37.44,94.58l9.84-4.1c19.31-8.04,33.25-8.09,41.44-0.13c18.83,18.28,7.16,76.79-3.27,104.04
			l-2,5.22l113.34,17.18l7.45-55.91l-51.22-7.32c9.63-16.72,34.87-64.57,25.53-92.06c-2.9-8.53-8.74-14.49-17.36-17.7
			c-9.45-3.53-30.94-4.38-45.35-1.71c13.56-27.57,50.35-30.85,89.1-34.3c39.46-3.52,80.26-7.15,98.28-37.98l0.87-1.48L483.79,95.77z
			 M398.3,198.53c-43.4,3.87-88.29,7.87-100.04,48.85l-2.74,9.57l9-4.27c9.65-4.57,37.88-4.4,47.69-0.74
			c6.04,2.25,9.96,6.23,11.98,12.16c9.85,28.97-27.77,89.68-28.15,90.29l-3.66,5.86l55.92,7.99l-5.06,37.98l-93.37-14.14
			c7.83-23.57,22.87-85.57-0.72-108.48c-9.42-9.14-23.37-10.89-41.57-5.23l33.02-83.4l-111.7-49.28l-36.53,79.82l-52.43-21.23
			C108.54,135.13,139,80.55,212.4,100.62c23.83,6.2,46.26,13.98,67.95,21.5c6.46,2.24,12.85,4.46,19.17,6.59
			c7.79,2.63,15.47,5.14,23.06,7.43c1.12,0.34,2.24,0.67,3.36,1c5.1,1.5,10.16,2.89,15.19,4.13c47.68,11.88,92.11,11.31,137-27.93
			l10.61,53.07C472.54,191.92,434.81,195.28,398.3,198.53z"/>
	</g>
	<g>
		<path class="st1" d="M215.09,316.39L52.6,247.72L6.2,340.42l41.13,16.74l28.91-59.27c0,0,44.78,62.39,84.7,59.14
			C205.71,353.38,215.09,316.39,215.09,316.39z"/>
		<path class="st1" d="M50.47,241.94L0,342.75l49.53,20.16l27.56-56.49c12.62,15.93,49.41,57.91,84.21,55.09
			c24.7-2.01,39.19-13.79,46.99-23.32c8.47-10.36,11.06-20.28,11.16-20.69l0.96-3.75L50.47,241.94z M79.9,295.26l-4.4-6.12
			L45.13,351.4L12.4,338.08l42.34-84.57l154.75,65.4c-3.56,8.87-15.68,30.92-48.92,33.63C123.64,355.56,80.33,295.87,79.9,295.26z"
			/>
	</g>
</g>
</svg>
