<?xml version="1.0" encoding="utf-8"?>
<!-- Generator: Adobe Illustrator 26.0.1, SVG Export Plug-In . SVG Version: 6.00 Build 0)  -->
<svg version="1.1" id="Layer_1" xmlns="http://www.w3.org/2000/svg" xmlns:xlink="http://www.w3.org/1999/xlink" x="0px" y="0px"
	 viewBox="0 0 1920 1080" style="enable-background:new 0 0 1920 1080;" xml:space="preserve">
<style type="text/css">
	.st0{fill:#00AAA5;}
</style>
<g>
	<g>
		<path class="st0" d="M452.91,859.14V733.79H557.5v45.7c0.62-1.46,1.53-3.58,2.69-6.11c6.78-14.77,12.32-26.84,23.21-37.39
			c9.76-9.45,18.79-12.82,21.26-13.68c8.22-2.87,13.66-2.4,15.39-2.2c0,0,6.3,0.73,11.73,3.91c13,7.62,14.57,31.25,15.39,46.18
			c0.5,8.95,0.46,19.69-2.93,48.87c-2,17.19-4.07,31.4-5.62,41.3h-59.38c0.42-0.93,2.02-4.44,2.44-5.38
			c8.27-18.21,12.41-27.31,12.95-28.59c3.68-8.68,8.95-21.23,12.71-38.12c0,0,1.74-4.07,2.44-13.2c0.13-1.73,0.24-4.1-1.3-5.95
			c-1.48-1.77-3.64-2.06-4.07-2.12c-2.67-0.36-4.73,1.28-7.09,3.1c-3.73,2.87-5.46,5.95-5.46,5.95c-5.54,8.55-9.09,17.11-9.29,17.59
			c-3.57,8.71-5.94,15.45-6.35,16.62c-0.85,2.41-3.89,11.15-7.66,23.95c-1.95,6.61-4.27,16.46-6.68,26.15h-45.13v-84.31h-22.64
			v84.31h-41.22V859.14z"/>
		<path class="st0" d="M781.73,823.28c-0.06-0.22-0.12-0.63-0.12-1.27v-81.57h-38.39v7.34c-2.2-2.33-4.69-4.26-7.44-5.79
			c-5.55-3.07-12.76-4.63-21.42-4.63c-9.5,0-18.35,2.54-26.3,7.54c-7.92,4.98-14.31,12.17-18.99,21.37
			c-4.62,9.09-6.97,19.98-6.97,32.39v3.53c0,12.57,2.43,23.56,7.22,32.67c4.85,9.21,11.44,16.36,19.6,21.26
			c8.15,4.89,17.15,7.37,26.76,7.37c7.92,0,15.04-1.7,21.18-5.06c4.15-2.27,7.67-5.49,10.52-9.61c1.04,2.05,2.44,3.92,4.21,5.6
			c4.16,3.97,9.51,5.99,15.9,5.99h24.26v-37.06h-9.49C782.02,823.31,781.85,823.3,781.73,823.28z M743.22,799.08v2.65
			c0,7.97-1.93,13.98-5.9,18.38c-3.83,4.24-8.89,6.3-15.46,6.3s-11.63-2.06-15.46-6.3c-3.97-4.39-5.9-10.4-5.9-18.37v-2.65
			c0-7.97,1.93-13.98,5.9-18.37c3.83-4.24,8.89-6.3,15.46-6.3c6.57,0,11.63,2.06,15.46,6.3
			C741.29,785.1,743.22,791.11,743.22,799.08z"/>
		<path class="st0" d="M895.9,742.46c-6.55-3.39-13.86-5.11-21.73-5.11c-8.44,0-15.96,1.96-22.37,5.84
			c-3.07,1.86-5.75,4.09-8.04,6.67v-9.42h-38.39v119.94h38.39V798.2c0-8.05,1.72-14.43,5.12-18.98c3.08-4.13,7.67-6.13,14.04-6.13
			c5.45,0,9.42,1.58,12.13,4.82c2.91,3.48,4.39,8.53,4.39,15.01v67.47h38.39v-74.52c0-10.83-1.96-19.95-5.82-27.1
			C908.06,751.44,902.64,745.96,895.9,742.46z"/>
		<path class="st0" d="M1018.76,749.83c-2.28-2.6-4.9-4.84-7.83-6.7c-6.06-3.84-14.09-5.78-23.89-5.78
			c-9.75,0-18.85,2.48-27.07,7.36c-8.22,4.88-14.89,11.98-19.81,21.11c-4.88,9.04-7.36,20.02-7.36,32.61v3.97
			c0,12.71,2.35,23.72,6.98,32.73c4.7,9.16,11.15,16.25,19.18,21.08c8.01,4.82,17.09,7.26,26.98,7.26c11.74,0,20.4-2.27,26.49-6.94
			c2.38-1.83,4.5-3.77,6.34-5.82v9.68h38.39V695.46h-38.39V749.83z M994.97,774.41c7.24,0,12.88,2.18,17.25,6.66
			c4.4,4.52,6.54,10.42,6.54,18.01v2.65c0,7.6-2.14,13.49-6.54,18.01c-4.36,4.48-10.01,6.66-17.25,6.66
			c-7.13,0-12.75-2.16-17.19-6.6c-4.44-4.44-6.6-10.35-6.6-18.07v-2.65c0-7.72,2.16-13.63,6.6-18.07
			C982.22,776.57,987.84,774.41,994.97,774.41z"/>
	</g>
	<path class="st0" d="M1297.42,744.53c-9.38-4.77-19.61-7.19-30.4-7.19c-10.79,0-21.02,2.42-30.4,7.19
		c-9.5,4.83-17.25,11.96-23.04,21.2c-5.8,9.27-8.74,20.49-8.74,33.34v2.65c0,13.01,2.95,24.27,8.75,33.47
		c5.78,9.16,13.53,16.25,23.02,21.07c9.38,4.77,19.61,7.19,30.4,7.19c10.79,0,21.02-2.42,30.4-7.19
		c9.49-4.83,17.24-11.92,23.02-21.07c5.81-9.2,8.76-20.46,8.76-33.47v-2.65c0-12.85-2.94-24.07-8.74-33.34
		C1314.67,756.5,1306.92,749.36,1297.42,744.53z M1284.04,819.98c-4.68,4.32-10.25,6.42-17.01,6.42c-6.77,0-12.33-2.1-17.01-6.42
		c-4.56-4.2-6.78-9.88-6.78-17.37v-4.41c0-7.61,2.21-13.32,6.75-17.45c4.69-4.26,10.26-6.34,17.04-6.34
		c6.77,0,12.35,2.07,17.04,6.33c4.54,4.13,6.75,9.84,6.75,17.46v4.41C1290.81,810.09,1288.6,815.77,1284.04,819.98z"/>
	<path class="st0" d="M1161.7,744.53c-9.38-4.77-19.61-7.19-30.4-7.19c-10.79,0-21.02,2.42-30.4,7.19
		c-9.5,4.83-17.25,11.96-23.04,21.2c-5.8,9.27-8.74,20.49-8.74,33.34v2.65c0,13.01,2.95,24.27,8.75,33.47
		c5.78,9.16,13.53,16.25,23.02,21.07c9.38,4.77,19.61,7.19,30.4,7.19c10.79,0,21.02-2.42,30.4-7.19
		c9.49-4.83,17.24-11.92,23.02-21.07c5.81-9.2,8.76-20.46,8.76-33.47v-2.65c0-12.85-2.94-24.07-8.74-33.34
		C1178.95,756.5,1171.2,749.36,1161.7,744.53z M1148.31,819.98c-4.68,4.32-10.25,6.42-17.01,6.42c-6.77,0-12.33-2.1-17.01-6.42
		c-4.56-4.2-6.78-9.88-6.78-17.37v-4.41c0-7.61,2.21-13.32,6.75-17.45c4.69-4.26,10.26-6.34,17.04-6.34
		c6.77,0,12.35,2.07,17.04,6.33c4.54,4.13,6.75,9.84,6.75,17.46v4.41C1155.09,810.09,1152.88,815.77,1148.31,819.98z"/>
	<path class="st0" d="M1459.85,765.84c-4.84-9.11-11.35-16.21-19.33-21.1c-8.01-4.91-16.96-7.39-26.58-7.39
		c-9.44,0-17.5,1.91-23.95,5.68c-3.37,1.97-6.33,4.36-8.88,7.17v-54.74h-38.39v164.91h38.39v-10.14c2.05,2.24,4.41,4.36,7.06,6.33
		c6.13,4.58,14.8,6.9,25.77,6.9c9.89,0,18.97-2.44,26.98-7.26c8.02-4.83,14.47-11.92,19.18-21.08c4.63-9.02,6.98-20.04,6.98-32.73
		v-3.97C1467.09,785.84,1464.65,774.88,1459.85,765.84z M1428.7,799.08v2.65c0,7.73-2.13,13.65-6.52,18.1
		c-4.37,4.43-10.02,6.58-17.27,6.58c-7.11,0-12.73-2.19-17.16-6.69c-4.46-4.52-6.63-10.4-6.63-17.98v-2.65
		c0-7.58,2.17-13.47,6.63-17.99c4.44-4.5,10.05-6.69,17.16-6.69c7.26,0,12.91,2.15,17.27,6.58
		C1426.57,785.43,1428.7,791.35,1428.7,799.08z"/>
</g>
<g>
	<path class="st0" d="M1050.98,334.78c33.54,0,60.83-27.29,60.83-60.83v-0.28l-4.51-0.75l-4.53-0.75l-100.22-16.67l-4.54-0.75
		l-4.5-0.75c-2.18,6.25-3.36,12.97-3.36,19.95C990.15,307.49,1017.44,334.78,1050.98,334.78z"/>
	<path class="st0" d="M1006.14,247.99l52.53,8.74l4.44,0.74l38.72,6.44l4.72,0.78l4.67,0.78l28.47,4.73l4.44,0.74l3.7-25.05
		l-45.96-5.23c-10.88-16.58-29.63-27.55-50.89-27.55c-23.64,0-44.18,13.56-54.25,33.31l4.66,0.78L1006.14,247.99z"/>
	<path class="st0" d="M1194.67,308.88l-5.91,5.62c-38.91,36.98-76.74,42.37-118.15,34.78c-5.54-1-11.14-2.25-16.82-3.68
		c-13.56-3.42-27.55-7.91-42.12-12.86c-5.74-1.94-11.56-3.96-17.49-6.02c-2.27-0.79-4.54-1.58-6.83-2.37
		c-19.74-6.82-40.13-13.69-61.75-19.32c-38.02-10.39-68.68-2.99-93.74,22.64c-22.29,22.79-37.46,57.2-51.09,90.49l-1.71,4.18
		l68.79,27.85l36.42-79.57l95.65,42.2l-37.44,94.58l9.84-4.1c19.31-8.04,33.25-8.09,41.44-0.13c18.83,18.28,7.16,76.79-3.27,104.04
		l-2,5.22l113.34,17.18l7.45-55.91l-51.22-7.32c9.63-16.72,34.87-64.57,25.53-92.06c-2.9-8.53-8.74-14.49-17.36-17.7
		c-9.45-3.53-30.94-4.38-45.35-1.71c13.56-27.57,50.35-30.85,89.1-34.3c39.46-3.52,80.26-7.15,98.28-37.98l0.87-1.48L1194.67,308.88
		z"/>
	<path class="st0" d="M710.88,555.86l49.53,20.16l27.56-56.49c12.62,15.93,49.41,57.91,84.21,55.09
		c24.7-2.01,39.19-13.79,46.99-23.32c8.47-10.36,11.06-20.28,11.16-20.69l0.96-3.75l-169.94-71.81L710.88,555.86z"/>
</g>
</svg>
