<svg xmlns="http://www.w3.org/2000/svg" version="1.2" viewBox="521.8 499.5 876.9 168">
	<title>Logo_Blue[1]</title>
	<style>
		.s0 { fill: #161d28 } 
	</style>
	<g id="Layer 1">
		<g id="&lt;Group&gt;">
			<path id="&lt;Path&gt;" class="s0" d="m521.8 663.1v-125.3h104.6v45.7c0.6-1.5 1.6-3.6 2.7-6.1 6.8-14.8 12.3-26.9 23.2-37.4 9.8-9.5 18.8-12.8 21.3-13.7 8.2-2.9 13.7-2.4 15.4-2.2 0 0 6.3 0.7 11.7 3.9 13 7.6 14.6 31.3 15.4 46.2 0.5 9 0.5 19.7-2.9 48.9-2 17.2-4.1 31.4-5.6 41.3h-59.4c0.4-1 2-4.5 2.4-5.4 8.3-18.2 12.4-27.3 13-28.6 3.7-8.7 8.9-21.2 12.7-38.1 0 0 1.7-4.1 2.4-13.2 0.2-1.7 0.3-4.1-1.3-6-1.5-1.7-3.6-2-4.1-2.1-2.6-0.3-4.7 1.3-7 3.1-3.8 2.9-5.5 6-5.5 6-5.5 8.5-9.1 17.1-9.3 17.6-3.6 8.7-5.9 15.4-6.3 16.6-0.9 2.4-3.9 11.1-7.7 23.9-1.9 6.6-4.3 16.5-6.7 26.2h-45.1v-84.3h-22.6v84.3h-41.3z"/>
			<g id="&lt;Group&gt;">
				<path id="&lt;Compound Path&gt;" fill-rule="evenodd" class="s0" d="m851.2 627.3h9.5v37.1h-24.3c-6.4 0-11.7-2-15.9-6q-2.6-2.5-4.2-5.6-4.3 6.2-10.5 9.6c-6.1 3.4-13.3 5.1-21.2 5.1-9.6 0-18.6-2.5-26.7-7.4-8.2-4.9-14.8-12.1-19.6-21.3-4.8-9.1-7.3-20.1-7.3-32.6v-3.6c0-12.4 2.4-23.3 7-32.3 4.7-9.2 11.1-16.4 19-21.4 7.9-5 16.8-7.6 26.3-7.6 8.7 0 15.9 1.6 21.4 4.7q4.1 2.3 7.5 5.8v-7.4h38.3v81.6c0 0.7 0.1 1.1 0.2 1.3q0.1 0 0.5 0zm-45-42.6c-3.8-4.2-8.8-6.3-15.4-6.3-6.6 0-11.6 2.1-15.5 6.3-3.9 4.4-5.9 10.4-5.9 18.4v2.6c0 8 2 14 5.9 18.4 3.9 4.2 8.9 6.3 15.5 6.3 6.6 0 11.6-2.1 15.4-6.3 4-4.4 6-10.4 6-18.4v-2.6c0-8-2-14-6-18.4z"/>
				<path id="&lt;Path&gt;" class="s0" d="m964.8 546.5c-6.5-3.4-13.8-5.2-21.7-5.2-8.4 0-16 2-22.4 5.9q-4.6 2.8-8 6.7v-9.5h-38.4v120h38.4v-62.2c0-8 1.7-14.4 5.1-19 3.1-4.1 7.7-6.1 14.1-6.1 5.4 0 9.4 1.6 12.1 4.8 2.9 3.5 4.4 8.5 4.4 15v67.5h38.4v-74.5c0-10.9-2-20-5.9-27.1-3.9-7.4-9.3-12.8-16.1-16.3z"/>
				<path id="&lt;Compound Path&gt;" fill-rule="evenodd" class="s0" d="m1087.7 499.5h38.4v164.9h-38.4v-9.7q-2.8 3.1-6.4 5.8c-6 4.7-14.7 7-26.4 7-9.9 0-19-2.5-27-7.3-8.1-4.8-14.5-11.9-19.2-21.1-4.6-9-7-20-7-32.7v-4c0-12.6 2.5-23.5 7.4-32.6 4.9-9.1 11.6-16.2 19.8-21.1 8.2-4.9 17.3-7.4 27.1-7.4 9.8 0 17.8 2 23.9 5.8q4.4 2.8 7.8 6.7zm-41 85.6c-4.4 4.4-6.6 10.3-6.6 18v2.7c0 7.7 2.2 13.6 6.6 18.1 4.4 4.4 10.1 6.6 17.2 6.6 7.2 0 12.9-2.2 17.2-6.7 4.4-4.5 6.6-10.4 6.6-18v-2.7c0-7.5-2.2-13.4-6.6-18-4.3-4.4-10-6.6-17.2-6.6-7.1 0-12.7 2.1-17.2 6.6z"/>
				<path id="&lt;Compound Path&gt;" fill-rule="evenodd" class="s0" d="m1253.1 569.7c5.8 9.3 8.8 20.5 8.8 33.4v2.6c0 13-3 24.3-8.8 33.5-5.8 9.2-13.5 16.2-23 21.1-9.4 4.7-19.6 7.2-30.4 7.2-10.8 0-21-2.5-30.4-7.2-9.5-4.9-17.3-11.9-23-21.1-5.8-9.2-8.8-20.5-8.8-33.5v-2.6c0-12.9 2.9-24.1 8.7-33.4 5.8-9.2 13.6-16.3 23.1-21.2 9.4-4.7 19.6-7.2 30.4-7.2 10.8 0 21 2.5 30.4 7.2 9.5 4.9 17.2 12 23 21.2zm-29.6 36.9v-4.4c0-7.6-2.2-13.3-6.8-17.5-4.7-4.2-10.2-6.3-17-6.3-6.8 0-12.4 2.1-17.1 6.3-4.5 4.2-6.7 9.9-6.7 17.5v4.4c0 7.5 2.2 13.2 6.8 17.4 4.6 4.3 10.2 6.4 17 6.4 6.7 0 12.3-2.1 17-6.4 4.6-4.2 6.8-9.9 6.8-17.4z"/>
				<path id="&lt;Compound Path&gt;" fill-rule="evenodd" class="s0" d="m1398.7 602.4v4c0 12.7-2.3 23.7-6.9 32.7-4.7 9.2-11.2 16.3-19.2 21.1-8 4.8-17.1 7.3-27 7.3-11 0-19.6-2.4-25.8-6.9q-3.9-3-7-6.4v10.2h-38.4v-164.9h38.4v54.7q3.8-4.2 8.9-7.2c6.4-3.7 14.5-5.7 23.9-5.7 9.6 0 18.6 2.5 26.6 7.4 8 4.9 14.5 12 19.3 21.1 4.8 9.1 7.2 20 7.2 32.6zm-44.9-17.4c-4.3-4.4-10-6.6-17.2-6.6-7.1 0-12.8 2.2-17.2 6.7-4.5 4.5-6.6 10.4-6.6 18v2.6c0 7.6 2.1 13.5 6.6 18 4.4 4.5 10.1 6.7 17.2 6.7 7.2 0 12.9-2.2 17.2-6.6 4.4-4.4 6.6-10.3 6.6-18.1v-2.6c0-7.8-2.2-13.7-6.6-18.1z"/>
			</g>
		</g>
		<g id="&lt;Group&gt;">
			<g id="&lt;Group&gt;">
			</g>
		</g>
	</g>
</svg>