<svg xmlns="http://www.w3.org/2000/svg" version="1.2" viewBox="519.8 213.1 876.9 650.4">
	<title>Logo_Blue[1]</title>
	<style>
		.s0 { fill: #161d28 } 
		.s1 { fill: #d8324a } 
	</style>
	<g id="Layer 1">
		<g id="&lt;Group&gt;">
			<path id="&lt;Path&gt;" class="s0" d="m519.8 859.1v-125.3h104.6v45.7c0.6-1.5 1.6-3.6 2.7-6.1 6.8-14.8 12.3-26.9 23.2-37.4 9.8-9.5 18.8-12.8 21.3-13.7 8.2-2.9 13.7-2.4 15.4-2.2 0 0 6.3 0.7 11.7 3.9 13 7.6 14.6 31.3 15.4 46.2 0.5 9 0.5 19.7-2.9 48.9-2 17.2-4.1 31.4-5.6 41.3h-59.4c0.4-1 2-4.5 2.4-5.4 8.3-18.2 12.4-27.3 13-28.6 3.7-8.7 8.9-21.2 12.7-38.1 0 0 1.7-4.1 2.4-13.2 0.2-1.7 0.3-4.1-1.3-6-1.5-1.7-3.6-2-4.1-2.1-2.6-0.3-4.7 1.3-7 3.1-3.8 2.9-5.5 6-5.5 6-5.5 8.5-9.1 17.1-9.3 17.6-3.6 8.7-5.9 15.4-6.3 16.6-0.9 2.4-3.9 11.1-7.7 23.9-1.9 6.6-4.3 16.5-6.7 26.2h-45.1v-84.3h-22.6v84.3h-41.3z"/>
			<g id="&lt;Group&gt;">
				<path id="&lt;Compound Path&gt;" fill-rule="evenodd" class="s0" d="m849.2 823.3h9.5v37.1h-24.3c-6.4 0-11.7-2-15.9-6q-2.6-2.5-4.2-5.6-4.3 6.2-10.5 9.6c-6.1 3.4-13.3 5.1-21.2 5.1-9.6 0-18.6-2.5-26.7-7.4-8.2-4.9-14.8-12.1-19.6-21.3-4.8-9.1-7.3-20.1-7.3-32.6v-3.6c0-12.4 2.4-23.3 7-32.3 4.7-9.2 11.1-16.4 19-21.4 7.9-5 16.8-7.6 26.3-7.6 8.7 0 15.9 1.6 21.4 4.7q4.1 2.3 7.5 5.8v-7.4h38.3v81.6c0 0.7 0.1 1.1 0.2 1.3q0.1 0 0.5 0zm-45-42.6c-3.8-4.2-8.8-6.3-15.4-6.3-6.6 0-11.6 2.1-15.5 6.3-3.9 4.4-5.9 10.4-5.9 18.4v2.6c0 8 2 14 5.9 18.4 3.9 4.2 8.9 6.3 15.5 6.3 6.6 0 11.6-2.1 15.4-6.3 4-4.4 6-10.4 6-18.4v-2.6c0-8-2-14-6-18.4z"/>
				<path id="&lt;Path&gt;" class="s0" d="m962.8 742.5c-6.5-3.4-13.8-5.2-21.7-5.2-8.4 0-16 2-22.4 5.9q-4.6 2.8-8 6.7v-9.5h-38.4v120h38.4v-62.2c0-8 1.7-14.4 5.1-19 3.1-4.1 7.7-6.1 14.1-6.1 5.4 0 9.4 1.6 12.1 4.8 2.9 3.5 4.4 8.5 4.4 15v67.5h38.4v-74.5c0-10.9-2-20-5.9-27.1-3.9-7.4-9.3-12.8-16.1-16.3z"/>
				<path id="&lt;Compound Path&gt;" fill-rule="evenodd" class="s0" d="m1085.7 695.5h38.4v164.9h-38.4v-9.7q-2.8 3.1-6.4 5.8c-6 4.7-14.7 7-26.4 7-9.9 0-19-2.5-27-7.3-8.1-4.8-14.5-11.9-19.2-21.1-4.6-9-7-20-7-32.7v-4c0-12.6 2.5-23.5 7.4-32.6 4.9-9.1 11.6-16.2 19.8-21.1 8.2-4.9 17.3-7.4 27.1-7.4 9.8 0 17.8 2 23.9 5.8q4.4 2.8 7.8 6.7zm-41 85.6c-4.4 4.4-6.6 10.3-6.6 18v2.7c0 7.7 2.2 13.6 6.6 18.1 4.4 4.4 10.1 6.6 17.2 6.6 7.2 0 12.9-2.2 17.2-6.7 4.4-4.5 6.6-10.4 6.6-18v-2.7c0-7.5-2.2-13.4-6.6-18-4.3-4.4-10-6.6-17.2-6.6-7.1 0-12.7 2.1-17.2 6.6z"/>
				<path id="&lt;Compound Path&gt;" fill-rule="evenodd" class="s0" d="m1251.1 765.7c5.8 9.3 8.8 20.5 8.8 33.4v2.6c0 13-3 24.3-8.8 33.5-5.8 9.2-13.5 16.2-23 21.1-9.4 4.7-19.6 7.2-30.4 7.2-10.8 0-21-2.5-30.4-7.2-9.5-4.9-17.3-11.9-23-21.1-5.8-9.2-8.8-20.5-8.8-33.5v-2.6c0-12.9 2.9-24.1 8.7-33.4 5.8-9.2 13.6-16.3 23.1-21.2 9.4-4.7 19.6-7.2 30.4-7.2 10.8 0 21 2.5 30.4 7.2 9.5 4.9 17.2 12 23 21.2zm-29.6 36.9v-4.4c0-7.6-2.2-13.3-6.8-17.5-4.7-4.2-10.2-6.3-17-6.3-6.8 0-12.4 2.1-17.1 6.3-4.5 4.2-6.7 9.9-6.7 17.5v4.4c0 7.5 2.2 13.2 6.8 17.4 4.6 4.3 10.2 6.4 17 6.4 6.7 0 12.3-2.1 17-6.4 4.6-4.2 6.8-9.9 6.8-17.4z"/>
				<path id="&lt;Compound Path&gt;" fill-rule="evenodd" class="s0" d="m1396.7 798.4v4c0 12.7-2.3 23.7-6.9 32.7-4.7 9.2-11.2 16.3-19.2 21.1-8 4.8-17.1 7.3-27 7.3-11 0-19.6-2.4-25.8-6.9q-3.9-3-7-6.4v10.2h-38.4v-164.9h38.4v54.7q3.8-4.2 8.9-7.2c6.4-3.7 14.5-5.7 23.9-5.7 9.6 0 18.6 2.5 26.6 7.4 8 4.9 14.5 12 19.3 21.1 4.8 9.1 7.2 20 7.2 32.6zm-44.9-17.4c-4.3-4.4-10-6.6-17.2-6.6-7.1 0-12.8 2.2-17.2 6.7-4.5 4.5-6.6 10.4-6.6 18v2.6c0 7.6 2.1 13.5 6.6 18 4.4 4.5 10.1 6.7 17.2 6.7 7.2 0 12.9-2.2 17.2-6.6 4.4-4.4 6.6-10.3 6.6-18.1v-2.6c0-7.8-2.2-13.7-6.6-18.1z"/>
			</g>
		</g>
		<g id="&lt;Group&gt;">
			<g id="&lt;Group&gt;">
				<path id="&lt;Compound Path&gt;" class="s1" d="m1053.2 345.6l-8.5 2.4-8.4 2.2-1.5 0.5-1.9-1.5-10.6-8q0 0 0 0l-11.2-8.5q-8.6-2.9-17.5-6-3.4-1.2-6.8-2.4l11.6 8.8 11.4 8.7 23.3 17.6 18.4-5 9.1-2.5 9.5-2.6c-5.6-1-11.2-2.3-16.9-3.7z"/>
			</g>
		</g>
		<g id="&lt;Group&gt;">
			<g id="&lt;Group&gt;">
				<path id="&lt;Path&gt;" class="s0" d="m1005.6 248l-4.8-0.8c9.6-17.6 28.2-29.6 49.6-29.6 18.4 0 34.7 8.8 45 22.4q1.8 2.3 3.3 4.9 1.4 2.3 2.6 4.8c1.8 3.8 3.2 7.7 4.1 11.8q0.4 1.6 0.6 3.2l-4.7-0.8-38.7-6.4-4.5-0.8z"/>
				<path id="&lt;Path&gt;" class="s0" d="m1106.8 274c0 31.1-25.2 56.3-56.4 56.3-31.1 0-56.3-25.2-56.3-56.3 0-6.8 1.2-13.3 3.4-19.3l4.5 0.8 100.2 16.7 4.6 0.7q0 0.5 0 1.1z"/>
				<path id="&lt;Compound Path&gt;" class="s0" d="m1106.8 272.9l-4.6-0.7q0.1 0.9 0.1 1.8c0 28.5-23.3 51.8-51.9 51.8-28.5 0-51.8-23.3-51.8-51.8 0-6.5 1.2-12.8 3.4-18.5l-4.5-0.7-4.5-0.8c-2.2 6.3-3.4 13-3.4 20 0 33.5 27.3 60.8 60.8 60.8 33.6 0 60.9-27.3 60.9-60.8v-0.3zm-101.2-25c9-15.4 25.7-25.8 44.8-25.8 15.3 0 29 6.6 38.5 17.1q2.2 2.4 4 5 1.6 2.3 3 4.8c2 3.7 3.6 7.7 4.7 11.8q0.4 1.5 0.7 3.1l4.7 0.7 4.7 0.8q-0.2-1.6-0.6-3.2c-0.8-4.2-2-8.1-3.6-11.9q-1-2.5-2.3-4.8-1.3-2.5-2.9-4.9c-10.8-16.6-29.6-27.5-50.9-27.5-23.6 0-44.1 13.5-54.2 33.3l4.7 0.8z"/>
			</g>
			<g id="&lt;Group&gt;">
				<path id="&lt;Path&gt;" class="s0" d="m1142.2 249.8l-3 20.4-28.5-4.7-4.7-0.8-4.7-0.8-38.7-6.4 2.4-16.4 27.9 3.1 5.8 0.7 5.5 0.6z"/>
				<path id="&lt;Compound Path&gt;" fill-rule="evenodd" class="s0" d="m1147.3 245.9l-3.7 25-4.4-0.7-28.5-4.7-4.7-0.8-4.7-0.8-38.7-6.4-4.5-0.8 3.1-20.6 27.7 3.1 6.5 0.8 5.9 0.7zm-10.2 7.8l-30.6-3.4-5.2-0.6-5.3-0.6-27.1-3.1-1.5 9.9 33.2 4.9 4.8 0.7 4.8 0.7 25.1 3.7z"/>
			</g>
			<g id="&lt;Group&gt;">
				<path id="&lt;Path&gt;" class="s0" d="m1191.3 317.8c-82 77.9-161.7 19.1-267.4-8.4-80.2-22-111.6 42.3-139.5 110.5l60.6 24.5 36.5-79.7 103.6 45.7-35.1 88.7c82.7-34.4 55.7 79.4 44.1 109.7l103.3 15.7 6.3-47-53.5-7.6c0 0 57.9-92.7 13.9-109.1-11.1-4.1-40.6-4.1-51.2 0.9 20.8-72.3 155.4-20.6 190.9-81.3z"/>
				<path id="&lt;Compound Path&gt;" fill-rule="evenodd" class="s0" d="m1208.6 381.1l-0.9 1.5c-18 30.9-58.8 34.5-98.3 38-38.7 3.5-75.5 6.7-89.1 34.3 14.4-2.7 35.9-1.8 45.4 1.7 8.6 3.2 14.4 9.2 17.3 17.7 9.4 27.5-15.9 75.4-25.5 92.1l51.2 7.3-7.4 55.9-113.4-17.2 2-5.2c10.5-27.2 22.1-85.7 3.3-104-8.2-8-22.1-7.9-41.4 0.1l-9.9 4.1 37.5-94.6-95.7-42.2-36.4 79.6-68.8-27.9 1.7-4.1c13.6-33.3 28.8-67.7 51.1-90.5 25.1-25.7 55.7-33.1 93.7-22.7 21.7 5.7 42.1 12.5 61.8 19.3q3.4 1.2 6.8 2.4 8.9 3.1 17.5 6c14.6 5 28.6 9.5 42.1 12.9 5.7 1.4 11.3 2.7 16.9 3.7 41.4 7.6 79.2 2.2 118.1-34.8l5.9-5.6zm-9.5-1.6l-10.6-53.1c-44.9 39.2-89.3 39.8-137 27.9q-7.5-1.9-15.2-4.1-1.7-0.5-3.4-1c-7.5-2.3-15.2-4.8-23-7.4-6.3-2.2-12.7-4.4-19.2-6.6-21.7-7.6-44.1-15.3-67.9-21.5-73.4-20.1-103.9 34.5-132.5 103.6l52.4 21.3 36.6-79.9 111.7 49.3-33.1 83.4c18.2-5.6 32.2-3.9 41.6 5.2 23.6 23 8.6 85 0.7 108.5l93.4 14.2 5.1-38-56-8 3.7-5.9c0.4-0.6 38-61.3 28.2-90.3-2.1-5.9-6-9.9-12-12.1-9.8-3.7-38.1-3.8-47.7 0.7l-9 4.3 2.7-9.6c11.8-41 56.7-45 100.1-48.8 36.5-3.3 74.2-6.6 90.4-32.1z"/>
			</g>
			<g id="&lt;Group&gt;">
				<path id="&lt;Path&gt;" class="s0" d="m925.4 529.5l-162.5-68.7-46.4 92.7 41.2 16.8 28.9-59.3c0 0 44.7 62.4 84.7 59.1 44.7-3.6 54.1-40.6 54.1-40.6z"/>
				<path id="&lt;Compound Path&gt;" fill-rule="evenodd" class="s0" d="m930.7 526.9l-0.9 3.7c-0.1 0.4-2.7 10.3-11.2 20.7-7.8 9.5-22.3 21.3-47 23.3-34.8 2.8-71.6-39.1-84.2-55.1l-27.5 56.5-49.6-20.1 50.5-100.9zm-59.8 38.8c33.2-2.7 45.3-24.7 48.9-33.6l-154.8-65.4-42.3 84.6 32.7 13.3 30.4-62.3 4.4 6.2c0.4 0.6 43.7 60.3 80.7 57.2z"/>
			</g>
		</g>
	</g>
</svg>