<svg xmlns="http://www.w3.org/2000/svg" version="1.2" viewBox="711.3 332.1 498.3 416.5">
	<title>Logo_Blue[1]</title>
	<style>
		.s0 { fill: #d8324a } 
		.s1 { fill: #161d28 } 
	</style>
	<g id="Layer 1">
		<g id="&lt;Group&gt;">
			<g id="&lt;Group&gt;">
				<path id="&lt;Compound Path&gt;" class="s0" d="m1054.2 464.6l-8.5 2.4-8.4 2.2-1.5 0.5-1.9-1.5-10.6-8q0 0 0 0l-11.2-8.5q-8.6-2.9-17.5-6-3.4-1.2-6.8-2.4l11.6 8.8 11.4 8.7 23.3 17.6 18.4-5 9.1-2.5 9.5-2.6c-5.6-1-11.2-2.3-16.9-3.7z"/>
			</g>
		</g>
		<g id="&lt;Group&gt;">
			<g id="&lt;Group&gt;">
				<path id="&lt;Path&gt;" class="s1" d="m1006.6 367l-4.8-0.8c9.6-17.6 28.2-29.6 49.6-29.6 18.4 0 34.7 8.8 45 22.4q1.8 2.3 3.3 4.9 1.4 2.3 2.6 4.8c1.8 3.8 3.2 7.7 4.1 11.8q0.4 1.6 0.6 3.2l-4.7-0.8-38.7-6.4-4.5-0.8z"/>
				<path id="&lt;Path&gt;" class="s1" d="m1107.8 393c0 31.1-25.2 56.3-56.4 56.3-31.1 0-56.3-25.2-56.3-56.3 0-6.8 1.2-13.3 3.4-19.3l4.5 0.8 100.2 16.7 4.6 0.7q0 0.5 0 1.1z"/>
				<path id="&lt;Compound Path&gt;" class="s1" d="m1107.8 391.9l-4.6-0.7q0.1 0.9 0.1 1.8c0 28.5-23.3 51.8-51.9 51.8-28.5 0-51.8-23.3-51.8-51.8 0-6.5 1.2-12.8 3.4-18.5l-4.5-0.7-4.5-0.8c-2.2 6.3-3.4 13-3.4 20 0 33.5 27.3 60.8 60.8 60.8 33.6 0 60.9-27.3 60.9-60.8v-0.3zm-101.2-25c9-15.4 25.7-25.8 44.8-25.8 15.3 0 29 6.6 38.5 17.1q2.2 2.4 4 5 1.6 2.3 3 4.8c2 3.7 3.6 7.7 4.7 11.8q0.4 1.5 0.7 3.1l4.7 0.7 4.7 0.8q-0.2-1.6-0.6-3.2c-0.8-4.2-2-8.1-3.6-11.9q-1-2.5-2.3-4.8-1.3-2.5-2.9-4.9c-10.8-16.6-29.6-27.5-50.9-27.5-23.6 0-44.1 13.5-54.2 33.3l4.7 0.8z"/>
			</g>
			<g id="&lt;Group&gt;">
				<path id="&lt;Path&gt;" class="s1" d="m1143.2 368.8l-3 20.4-28.5-4.7-4.7-0.8-4.7-0.8-38.7-6.4 2.4-16.4 27.9 3.1 5.8 0.7 5.5 0.6z"/>
				<path id="&lt;Compound Path&gt;" fill-rule="evenodd" class="s1" d="m1148.3 364.9l-3.7 25-4.4-0.7-28.5-4.7-4.7-0.8-4.7-0.8-38.7-6.4-4.5-0.8 3.1-20.6 27.7 3.2 6.5 0.7 5.9 0.7zm-10.2 7.8l-30.6-3.4-5.2-0.6-5.3-0.6-27.1-3.1-1.5 9.9 33.2 4.9 4.8 0.7 4.8 0.7 25.1 3.7z"/>
			</g>
			<g id="&lt;Group&gt;">
				<path id="&lt;Path&gt;" class="s1" d="m1192.3 436.8c-82 77.9-161.7 19.1-267.4-8.4-80.2-22-111.6 42.3-139.5 110.5l60.6 24.5 36.5-79.7 103.6 45.7-35.1 88.7c82.7-34.4 55.7 79.4 44.1 109.7l103.3 15.7 6.3-47-53.5-7.6c0 0 57.9-92.7 13.9-109.1-11.1-4.1-40.6-4.1-51.2 0.9 20.8-72.3 155.4-20.6 190.9-81.3z"/>
				<path id="&lt;Compound Path&gt;" fill-rule="evenodd" class="s1" d="m1209.6 500.1l-0.9 1.5c-18 30.9-58.8 34.5-98.3 38-38.7 3.5-75.5 6.7-89.1 34.3 14.4-2.7 35.9-1.8 45.4 1.7 8.6 3.2 14.4 9.2 17.3 17.7 9.4 27.5-15.9 75.4-25.5 92.1l51.2 7.3-7.4 55.9-113.4-17.2 2-5.2c10.5-27.2 22.1-85.7 3.3-104-8.2-8-22.1-7.9-41.4 0.1l-9.9 4.1 37.5-94.6-95.7-42.2-36.4 79.6-68.8-27.9 1.7-4.1c13.6-33.3 28.8-67.7 51.1-90.5 25.1-25.7 55.7-33.1 93.7-22.7 21.7 5.7 42.1 12.5 61.8 19.3q3.4 1.2 6.8 2.4 8.9 3.1 17.5 6c14.6 5 28.6 9.5 42.1 12.9 5.7 1.4 11.3 2.7 16.9 3.7 41.4 7.6 79.2 2.2 118.1-34.8l5.9-5.6zm-9.5-1.6l-10.6-53.1c-44.9 39.2-89.3 39.8-137 27.9q-7.5-1.9-15.2-4.1-1.7-0.5-3.4-1c-7.5-2.3-15.2-4.8-23-7.4-6.3-2.2-12.7-4.4-19.2-6.6-21.7-7.6-44.1-15.3-67.9-21.5-73.4-20.1-103.9 34.5-132.5 103.6l52.4 21.3 36.6-79.9 111.7 49.3-33.1 83.4c18.2-5.6 32.2-3.9 41.6 5.2 23.6 23 8.6 85 0.7 108.5l93.4 14.2 5.1-38-56-8 3.7-5.9c0.4-0.6 38-61.3 28.2-90.3-2.1-5.9-6-9.9-12-12.1-9.8-3.7-38.1-3.8-47.7 0.7l-9 4.3 2.7-9.6c11.8-41 56.7-45 100.1-48.8 36.5-3.3 74.2-6.6 90.4-32.1z"/>
			</g>
			<g id="&lt;Group&gt;">
				<path id="&lt;Path&gt;" class="s1" d="m926.4 648.5l-162.5-68.7-46.4 92.7 41.2 16.8 28.9-59.3c0 0 44.7 62.4 84.7 59.1 44.7-3.6 54.1-40.6 54.1-40.6z"/>
				<path id="&lt;Compound Path&gt;" fill-rule="evenodd" class="s1" d="m931.7 645.9l-0.9 3.7c-0.1 0.4-2.7 10.3-11.2 20.7-7.8 9.5-22.3 21.3-47 23.3-34.8 2.8-71.6-39.1-84.2-55.1l-27.5 56.5-49.6-20.1 50.5-100.9zm-59.8 38.8c33.2-2.7 45.3-24.7 48.9-33.6l-154.8-65.4-42.3 84.6 32.7 13.3 30.4-62.3 4.4 6.2c0.4 0.6 43.7 60.3 80.7 57.2z"/>
			</g>
		</g>
	</g>
</svg>