<?xml version="1.0" encoding="utf-8"?>
<!-- Generator: Adobe Illustrator 26.0.1, SVG Export Plug-In . SVG Version: 6.00 Build 0)  -->
<svg version="1.1" id="Layer_1" xmlns="http://www.w3.org/2000/svg" xmlns:xlink="http://www.w3.org/1999/xlink" x="0px" y="0px"
	 viewBox="0 0 1014.17 168" style="enable-background:new 0 0 1014.17 168;" xml:space="preserve">
<style type="text/css">
	.st0{display:none;}
	.st1{display:inline;}
	.st2{fill:#00AAA5;}
</style>
<g class="st0">
	<g class="st1">
		<path class="st2" d="M465.57-530.58l-4.75-0.79c9.52-17.62,28.16-29.59,49.59-29.59c18.36,0,34.67,8.78,44.95,22.38
			c1.19,1.57,2.3,3.21,3.32,4.91c0.94,1.56,1.81,3.17,2.59,4.82c1.79,3.73,3.17,7.69,4.1,11.82c0.23,1.04,0.44,2.09,0.61,3.15
			l-4.72-0.78l-38.72-6.44l-4.44-0.74L465.57-530.58z"/>
		<path class="st2" d="M566.74-504.62c0,31.11-25.22,56.33-56.33,56.33c-31.11,0-56.33-25.22-56.33-56.33
			c0-6.74,1.18-13.21,3.36-19.2l4.54,0.75L562.2-506.4l4.53,0.75C566.74-505.31,566.74-504.97,566.74-504.62z"/>
		<path class="st2" d="M566.73-505.65l-4.53-0.75c0.03,0.59,0.04,1.18,0.04,1.78c0,28.58-23.25,51.83-51.83,51.83
			c-28.58,0-51.83-23.25-51.83-51.83c0-6.5,1.2-12.72,3.4-18.45l-4.54-0.75l-4.5-0.75c-2.18,6.25-3.36,12.97-3.36,19.95
			c0,33.54,27.29,60.83,60.83,60.83c33.54,0,60.83-27.29,60.83-60.83v-0.28L566.73-505.65z M465.57-530.58
			c8.97-15.46,25.71-25.88,44.84-25.88c15.25,0,28.98,6.62,38.48,17.14c1.42,1.58,2.74,3.24,3.96,4.98c1.1,1.56,2.11,3.19,3.04,4.87
			c2.01,3.67,3.59,7.6,4.67,11.73c0.26,1.01,0.5,2.04,0.7,3.08l4.72,0.78l4.67,0.78c-0.15-1.09-0.33-2.16-0.55-3.23
			c-0.8-4.14-2.03-8.13-3.64-11.93c-0.69-1.63-1.45-3.23-2.28-4.79c-0.88-1.67-1.84-3.29-2.88-4.86
			c-10.88-16.58-29.63-27.55-50.89-27.55c-23.64,0-44.18,13.56-54.25,33.31l4.66,0.78L465.57-530.58z"/>
	</g>
	<g class="st1">
		<polygon class="st2" points="602.13,-528.73 599.12,-508.37 570.65,-513.1 565.98,-513.88 561.26,-514.66 522.54,-521.1 
			524.96,-537.51 552.85,-534.34 558.68,-533.67 564.18,-533.05 		"/>
		<path class="st2" d="M561.3-537.91l-5.94-0.67l-6.47-0.74l-27.74-3.15l-3.05,20.63l4.44,0.74l38.72,6.44l4.72,0.78l4.67,0.78
			l28.47,4.73l4.44,0.74l3.7-25.05L561.3-537.91z M595.2-512.63l-25.1-3.7l-4.73-0.7l-4.81-0.71l-33.24-4.9l1.46-9.91l27.11,3.08
			l5.38,0.62l5.19,0.59l30.53,3.47L595.2-512.63z"/>
	</g>
	<g class="st1">
		<path class="st2" d="M651.28-460.81c-82.04,77.97-161.68,19.12-267.44-8.39c-80.2-21.93-111.55,42.28-139.48,110.49l60.62,24.54
			l36.47-79.7l103.68,45.74l-35.11,88.7c82.61-34.41,55.71,79.34,44.1,109.67l103.28,15.65l6.26-46.95l-53.49-7.64
			c0,0,57.93-92.64,13.92-109.05c-11.14-4.15-40.57-4.14-51.19,0.89c20.74-72.35,155.4-20.65,190.91-81.37L651.28-460.81z"/>
		<path class="st2" d="M654.09-469.69l-5.91,5.62c-38.91,36.98-76.74,42.37-118.15,34.78c-5.54-1-11.14-2.25-16.82-3.68
			c-13.56-3.42-27.55-7.91-42.12-12.86c-5.74-1.94-11.56-3.96-17.49-6.02c-2.27-0.79-4.54-1.58-6.83-2.37
			c-19.74-6.82-40.13-13.69-61.75-19.32c-38.02-10.39-68.68-2.99-93.74,22.64c-22.29,22.79-37.46,57.2-51.09,90.49l-1.71,4.18
			l68.79,27.85l36.42-79.57l95.65,42.2l-37.44,94.58l9.84-4.1c19.31-8.04,33.25-8.09,41.44-0.13c18.83,18.28,7.16,76.79-3.27,104.04
			l-2,5.22l113.34,17.18l7.45-55.91l-51.22-7.32c9.63-16.72,34.87-64.57,25.53-92.06c-2.9-8.53-8.74-14.49-17.36-17.7
			c-9.45-3.53-30.94-4.38-45.35-1.71c13.56-27.57,50.35-30.85,89.1-34.3c39.46-3.52,80.26-7.15,98.28-37.98l0.87-1.48L654.09-469.69
			z M568.6-366.93c-43.4,3.87-88.29,7.87-100.04,48.85l-2.74,9.57l9-4.27c9.65-4.57,37.88-4.4,47.69-0.74
			c6.04,2.25,9.96,6.23,11.98,12.16c9.85,28.97-27.77,89.68-28.15,90.29l-3.66,5.86l55.92,7.99l-5.06,37.98l-93.37-14.14
			c7.83-23.57,22.87-85.57-0.72-108.48c-9.42-9.14-23.37-10.89-41.57-5.23l33.02-83.4l-111.7-49.28l-36.53,79.82l-52.43-21.23
			c28.6-69.15,59.06-123.73,132.46-103.66c23.83,6.2,46.26,13.98,67.95,21.5c6.46,2.24,12.85,4.46,19.17,6.59
			c7.79,2.63,15.47,5.14,23.06,7.43c1.12,0.34,2.24,0.67,3.36,1c5.1,1.5,10.16,2.89,15.19,4.13c47.68,11.88,92.11,11.31,137-27.93
			l10.61,53.07C642.84-373.54,605.11-370.18,568.6-366.93z"/>
	</g>
	<g class="st1">
		<path class="st2" d="M385.4-249.07l-162.49-68.67l-46.4,92.69l41.13,16.74l28.91-59.27c0,0,44.78,62.39,84.7,59.14
			C376.01-212.08,385.4-249.07,385.4-249.07z"/>
		<path class="st2" d="M220.77-323.52L170.3-222.71l49.53,20.16l27.56-56.49c12.62,15.93,49.41,57.91,84.21,55.09
			c24.7-2.01,39.19-13.79,46.99-23.32c8.47-10.36,11.06-20.28,11.16-20.69l0.96-3.75L220.77-323.52z M250.2-270.2l-4.4-6.12
			l-30.37,62.26l-32.73-13.32l42.34-84.57l154.75,65.4c-3.56,8.87-15.68,30.92-48.92,33.63C293.94-209.9,250.63-269.59,250.2-270.2z
			"/>
	</g>
</g>
<g>
	<g>
		<path class="st2" d="M0,163.68V38.32h104.59v45.7c0.62-1.46,1.53-3.58,2.69-6.11c6.78-14.77,12.32-26.84,23.21-37.39
			c9.76-9.45,18.79-12.82,21.26-13.68c8.22-2.87,13.66-2.4,15.39-2.2c0,0,6.3,0.73,11.73,3.91c13,7.62,14.57,31.25,15.39,46.18
			c0.5,8.95,0.46,19.69-2.93,48.87c-2,17.19-4.07,31.4-5.62,41.3h-59.38c0.42-0.93,2.02-4.44,2.44-5.38
			c8.27-18.21,12.41-27.31,12.95-28.59c3.68-8.68,8.95-21.23,12.71-38.12c0,0,1.74-4.07,2.44-13.2c0.13-1.73,0.24-4.1-1.3-5.95
			c-1.48-1.77-3.64-2.06-4.07-2.12c-2.67-0.36-4.73,1.28-7.09,3.1c-3.73,2.87-5.46,5.95-5.46,5.95c-5.54,8.55-9.09,17.11-9.29,17.59
			c-3.57,8.71-5.94,15.45-6.35,16.62c-0.85,2.41-3.89,11.15-7.66,23.95c-1.95,6.61-4.27,16.46-6.68,26.15H63.86V80.6H41.22v84.31H0
			V163.68z"/>
		<path class="st2" d="M328.82,127.82c-0.06-0.22-0.12-0.63-0.12-1.27V44.97h-38.39v7.34c-2.2-2.33-4.69-4.26-7.44-5.79
			c-5.55-3.07-12.76-4.63-21.42-4.63c-9.5,0-18.35,2.54-26.3,7.54c-7.92,4.98-14.31,12.17-18.99,21.37
			c-4.62,9.09-6.97,19.98-6.97,32.39v3.53c0,12.57,2.43,23.56,7.22,32.67c4.85,9.21,11.44,16.36,19.6,21.26
			c8.15,4.89,17.15,7.37,26.76,7.37c7.92,0,15.04-1.7,21.18-5.06c4.15-2.27,7.67-5.49,10.52-9.61c1.04,2.05,2.44,3.92,4.21,5.6
			c4.16,3.97,9.51,5.99,15.9,5.99h24.26v-37.06h-9.49C329.11,127.85,328.94,127.83,328.82,127.82z M290.31,103.62v2.65
			c0,7.97-1.93,13.98-5.9,18.38c-3.83,4.24-8.89,6.3-15.46,6.3c-6.57,0-11.63-2.06-15.46-6.3c-3.97-4.39-5.9-10.4-5.9-18.37v-2.65
			c0-7.97,1.93-13.98,5.9-18.37c3.83-4.24,8.89-6.3,15.46-6.3c6.57,0,11.63,2.06,15.46,6.3C288.38,89.64,290.31,95.65,290.31,103.62
			z"/>
		<path class="st2" d="M442.99,46.99c-6.55-3.39-13.86-5.11-21.73-5.11c-8.44,0-15.96,1.96-22.37,5.84
			c-3.07,1.86-5.75,4.09-8.04,6.67v-9.42h-38.39v119.94h38.39v-62.18c0-8.05,1.72-14.43,5.12-18.98c3.08-4.13,7.67-6.13,14.04-6.13
			c5.45,0,9.42,1.58,12.13,4.82c2.91,3.48,4.39,8.53,4.39,15.01v67.47h38.39V90.39c0-10.83-1.96-19.95-5.82-27.1
			C455.15,55.98,449.73,50.5,442.99,46.99z"/>
		<path class="st2" d="M565.84,54.37c-2.28-2.6-4.9-4.84-7.83-6.7c-6.06-3.84-14.09-5.78-23.89-5.78c-9.75,0-18.85,2.48-27.07,7.36
			c-8.22,4.88-14.89,11.98-19.81,21.11c-4.88,9.04-7.36,20.02-7.36,32.61v3.97c0,12.71,2.35,23.72,6.98,32.73
			c4.7,9.16,11.15,16.25,19.18,21.08c8.01,4.82,17.09,7.26,26.98,7.26c11.74,0,20.4-2.27,26.49-6.94c2.38-1.83,4.5-3.77,6.34-5.82
			v9.68h38.39V0h-38.39V54.37z M542.05,78.94c7.24,0,12.88,2.18,17.25,6.66c4.4,4.52,6.54,10.42,6.54,18.01v2.65
			c0,7.6-2.14,13.49-6.54,18.01c-4.36,4.48-10.01,6.66-17.25,6.66c-7.13,0-12.75-2.16-17.19-6.6c-4.44-4.44-6.6-10.35-6.6-18.07
			v-2.65c0-7.72,2.16-13.63,6.6-18.07C529.31,81.1,534.93,78.94,542.05,78.94z"/>
	</g>
	<path class="st2" d="M844.51,49.07c-9.38-4.77-19.61-7.19-30.4-7.19c-10.79,0-21.02,2.42-30.4,7.19
		c-9.5,4.83-17.25,11.96-23.04,21.2c-5.8,9.27-8.74,20.49-8.74,33.34v2.65c0,13.01,2.95,24.27,8.75,33.47
		c5.78,9.16,13.53,16.25,23.02,21.07c9.38,4.77,19.61,7.19,30.4,7.19c10.79,0,21.02-2.42,30.4-7.19
		c9.49-4.83,17.24-11.92,23.02-21.07c5.81-9.2,8.76-20.46,8.76-33.47v-2.65c0-12.85-2.94-24.07-8.74-33.34
		C861.76,61.03,854.01,53.9,844.51,49.07z M831.12,124.51c-4.68,4.32-10.25,6.42-17.01,6.42c-6.77,0-12.33-2.1-17.01-6.42
		c-4.56-4.2-6.78-9.88-6.78-17.37v-4.41c0-7.61,2.21-13.32,6.75-17.45c4.69-4.26,10.26-6.34,17.04-6.34
		c6.77,0,12.35,2.07,17.04,6.33c4.54,4.13,6.75,9.84,6.75,17.46v4.41C837.9,114.63,835.69,120.31,831.12,124.51z"/>
	<path class="st2" d="M708.79,49.07c-9.38-4.77-19.61-7.19-30.4-7.19c-10.79,0-21.02,2.42-30.4,7.19
		c-9.5,4.83-17.25,11.96-23.04,21.2c-5.8,9.27-8.74,20.49-8.74,33.34v2.65c0,13.01,2.95,24.27,8.75,33.47
		c5.78,9.16,13.53,16.25,23.02,21.07c9.38,4.77,19.61,7.19,30.4,7.19c10.79,0,21.02-2.42,30.4-7.19
		c9.49-4.83,17.24-11.92,23.02-21.07c5.81-9.2,8.76-20.46,8.76-33.47v-2.65c0-12.85-2.94-24.07-8.74-33.34
		C726.04,61.03,718.29,53.9,708.79,49.07z M695.4,124.51c-4.68,4.32-10.25,6.42-17.01,6.42c-6.77,0-12.33-2.1-17.01-6.42
		c-4.56-4.2-6.78-9.88-6.78-17.37v-4.41c0-7.61,2.21-13.32,6.75-17.45c4.69-4.26,10.26-6.34,17.04-6.34
		c6.77,0,12.35,2.07,17.04,6.33c4.54,4.13,6.75,9.84,6.75,17.46v4.41C702.18,114.63,699.96,120.31,695.4,124.51z"/>
	<path class="st2" d="M1006.94,70.38c-4.84-9.12-11.34-16.21-19.33-21.1c-8.01-4.91-16.96-7.39-26.58-7.39
		c-9.44,0-17.5,1.91-23.95,5.68c-3.37,1.97-6.33,4.36-8.88,7.17V0h-38.39v164.91h38.39v-10.14c2.05,2.24,4.41,4.36,7.06,6.33
		c6.13,4.58,14.8,6.9,25.77,6.9c9.89,0,18.97-2.44,26.98-7.26c8.02-4.83,14.47-11.92,19.18-21.08c4.63-9.02,6.98-20.04,6.98-32.73
		v-3.97C1014.17,90.38,1011.74,79.42,1006.94,70.38z M975.79,103.62v2.65c0,7.73-2.13,13.65-6.52,18.1
		c-4.37,4.43-10.02,6.58-17.27,6.58c-7.11,0-12.73-2.19-17.16-6.69c-4.46-4.52-6.63-10.4-6.63-17.98v-2.65
		c0-7.58,2.17-13.47,6.63-17.99c4.44-4.5,10.05-6.69,17.16-6.69c7.26,0,12.91,2.15,17.27,6.58
		C973.66,89.97,975.79,95.89,975.79,103.62z"/>
</g>
</svg>
