<?xml version="1.0" encoding="utf-8"?>
<!-- Generator: Adobe Illustrator 26.0.1, SVG Export Plug-In . SVG Version: 6.00 Build 0)  -->
<svg version="1.1" id="Layer_1" xmlns="http://www.w3.org/2000/svg" xmlns:xlink="http://www.w3.org/1999/xlink" x="0px" y="0px"
	 viewBox="0 0 1014.17 168" style="enable-background:new 0 0 1014.17 168;" xml:space="preserve">
<style type="text/css">
	.st0{fill:#FFFFFF;}
</style>
<g>
	<g>
		<path class="st0" d="M0,163.68V38.32h104.59v45.7c0.62-1.46,1.53-3.58,2.69-6.11c6.78-14.77,12.32-26.84,23.21-37.39
			c9.76-9.45,18.79-12.82,21.26-13.68c8.22-2.87,13.66-2.4,15.39-2.2c0,0,6.3,0.73,11.73,3.91c13,7.62,14.57,31.25,15.39,46.18
			c0.5,8.95,0.46,19.69-2.93,48.87c-2,17.19-4.07,31.4-5.62,41.3h-59.38c0.42-0.93,2.02-4.44,2.44-5.38
			c8.27-18.21,12.41-27.31,12.95-28.59c3.68-8.68,8.95-21.23,12.71-38.12c0,0,1.74-4.07,2.44-13.2c0.13-1.73,0.24-4.1-1.3-5.95
			c-1.48-1.77-3.64-2.06-4.07-2.12c-2.67-0.36-4.73,1.28-7.09,3.1c-3.73,2.87-5.46,5.95-5.46,5.95c-5.54,8.55-9.09,17.11-9.29,17.59
			c-3.57,8.71-5.94,15.45-6.35,16.62c-0.85,2.41-3.89,11.15-7.66,23.95c-1.95,6.61-4.27,16.46-6.68,26.15H63.86V80.6H41.22v84.31H0
			V163.68z"/>
		<path class="st0" d="M328.82,127.82c-0.06-0.22-0.12-0.63-0.12-1.27V44.97h-38.39v7.34c-2.2-2.33-4.69-4.26-7.44-5.79
			c-5.55-3.07-12.76-4.63-21.42-4.63c-9.5,0-18.35,2.54-26.3,7.54c-7.92,4.98-14.31,12.17-18.99,21.37
			c-4.62,9.09-6.97,19.98-6.97,32.39v3.53c0,12.57,2.43,23.56,7.22,32.67c4.85,9.21,11.44,16.36,19.6,21.26
			c8.15,4.89,17.15,7.37,26.76,7.37c7.92,0,15.04-1.7,21.18-5.06c4.15-2.27,7.67-5.49,10.52-9.61c1.04,2.05,2.44,3.92,4.21,5.6
			c4.16,3.97,9.51,5.99,15.9,5.99h24.26v-37.06h-9.49C329.11,127.85,328.94,127.83,328.82,127.82z M290.31,103.62v2.65
			c0,7.97-1.93,13.98-5.9,18.38c-3.83,4.24-8.89,6.3-15.46,6.3c-6.57,0-11.63-2.06-15.46-6.3c-3.97-4.39-5.9-10.4-5.9-18.37v-2.65
			c0-7.97,1.93-13.98,5.9-18.37c3.83-4.24,8.89-6.3,15.46-6.3c6.57,0,11.63,2.06,15.46,6.3C288.38,89.64,290.31,95.65,290.31,103.62
			z"/>
		<path class="st0" d="M442.99,46.99c-6.55-3.39-13.86-5.11-21.73-5.11c-8.44,0-15.96,1.96-22.37,5.84
			c-3.07,1.86-5.75,4.09-8.04,6.67v-9.42h-38.39v119.94h38.39v-62.18c0-8.05,1.72-14.43,5.12-18.98c3.08-4.13,7.67-6.13,14.04-6.13
			c5.45,0,9.42,1.58,12.13,4.82c2.91,3.48,4.39,8.53,4.39,15.01v67.47h38.39V90.39c0-10.83-1.96-19.95-5.82-27.1
			C455.15,55.98,449.73,50.5,442.99,46.99z"/>
		<path class="st0" d="M565.84,54.37c-2.28-2.6-4.9-4.84-7.83-6.7c-6.06-3.84-14.09-5.78-23.89-5.78c-9.75,0-18.85,2.48-27.07,7.36
			c-8.22,4.88-14.89,11.98-19.81,21.11c-4.88,9.04-7.36,20.02-7.36,32.61v3.97c0,12.71,2.35,23.72,6.98,32.73
			c4.7,9.16,11.15,16.25,19.18,21.08c8.01,4.82,17.09,7.26,26.98,7.26c11.74,0,20.4-2.27,26.49-6.94c2.38-1.83,4.5-3.77,6.34-5.82
			v9.68h38.39V0h-38.39V54.37z M542.05,78.94c7.24,0,12.88,2.18,17.25,6.66c4.4,4.52,6.54,10.42,6.54,18.01v2.65
			c0,7.6-2.14,13.49-6.54,18.01c-4.36,4.48-10.01,6.66-17.25,6.66c-7.13,0-12.75-2.16-17.19-6.6c-4.44-4.44-6.6-10.35-6.6-18.07
			v-2.65c0-7.72,2.16-13.63,6.6-18.07C529.31,81.1,534.93,78.94,542.05,78.94z"/>
	</g>
	<path class="st0" d="M844.51,49.07c-9.38-4.77-19.61-7.19-30.4-7.19c-10.79,0-21.02,2.42-30.4,7.19
		c-9.5,4.83-17.25,11.96-23.04,21.2c-5.8,9.27-8.74,20.49-8.74,33.34v2.65c0,13.01,2.95,24.27,8.75,33.47
		c5.78,9.16,13.53,16.25,23.02,21.07c9.38,4.77,19.61,7.19,30.4,7.19c10.79,0,21.02-2.42,30.4-7.19
		c9.49-4.83,17.24-11.92,23.02-21.07c5.81-9.2,8.76-20.46,8.76-33.47v-2.65c0-12.85-2.94-24.07-8.74-33.34
		C861.76,61.03,854.01,53.9,844.51,49.07z M831.12,124.51c-4.68,4.32-10.25,6.42-17.01,6.42c-6.77,0-12.33-2.1-17.01-6.42
		c-4.56-4.2-6.78-9.88-6.78-17.37v-4.41c0-7.61,2.21-13.32,6.75-17.45c4.69-4.26,10.26-6.34,17.04-6.34
		c6.77,0,12.35,2.07,17.04,6.33c4.54,4.13,6.75,9.84,6.75,17.46v4.41C837.9,114.63,835.69,120.31,831.12,124.51z"/>
	<path class="st0" d="M708.79,49.07c-9.38-4.77-19.61-7.19-30.4-7.19c-10.79,0-21.02,2.42-30.4,7.19
		c-9.5,4.83-17.25,11.96-23.04,21.2c-5.8,9.27-8.74,20.49-8.74,33.34v2.65c0,13.01,2.95,24.27,8.75,33.47
		c5.78,9.16,13.53,16.25,23.02,21.07c9.38,4.77,19.61,7.19,30.4,7.19c10.79,0,21.02-2.42,30.4-7.19
		c9.49-4.83,17.24-11.92,23.02-21.07c5.81-9.2,8.76-20.46,8.76-33.47v-2.65c0-12.85-2.94-24.07-8.74-33.34
		C726.04,61.03,718.29,53.9,708.79,49.07z M695.4,124.51c-4.68,4.32-10.25,6.42-17.01,6.42c-6.77,0-12.33-2.1-17.01-6.42
		c-4.56-4.2-6.78-9.88-6.78-17.37v-4.41c0-7.61,2.21-13.32,6.75-17.45c4.69-4.26,10.26-6.34,17.04-6.34
		c6.77,0,12.35,2.07,17.04,6.33c4.54,4.13,6.75,9.84,6.75,17.46v4.41C702.18,114.63,699.96,120.31,695.4,124.51z"/>
	<path class="st0" d="M1006.94,70.38c-4.84-9.12-11.34-16.21-19.33-21.1c-8.01-4.91-16.96-7.39-26.58-7.39
		c-9.44,0-17.5,1.91-23.95,5.68c-3.37,1.97-6.33,4.36-8.88,7.17V0h-38.39v164.91h38.39v-10.14c2.05,2.24,4.41,4.36,7.06,6.33
		c6.13,4.58,14.8,6.9,25.77,6.9c9.89,0,18.97-2.44,26.98-7.26c8.02-4.83,14.47-11.92,19.18-21.08c4.63-9.02,6.98-20.04,6.98-32.73
		v-3.97C1014.17,90.38,1011.74,79.42,1006.94,70.38z M975.79,103.62v2.65c0,7.73-2.13,13.65-6.52,18.1
		c-4.37,4.43-10.02,6.58-17.27,6.58c-7.11,0-12.73-2.19-17.16-6.69c-4.46-4.52-6.63-10.4-6.63-17.98v-2.65
		c0-7.58,2.17-13.47,6.63-17.99c4.44-4.5,10.05-6.69,17.16-6.69c7.26,0,12.91,2.15,17.27,6.58
		C973.66,89.97,975.79,95.89,975.79,103.62z"/>
</g>
</svg>
